<svg viewBox="0 0 20 20" xmlns="http://www.w3.org/2000/svg"><path d="m0 0h20v20h-20z" fill="none"/><path d="m4.46 5.16.54 2.3-.54 2.29 2.01 1.24 1.23 2.01 2.3-.54 2.3.54 1.23-2.01 2.01-1.24-.54-2.29.54-2.3-2-1.24-1.24-2.01-2.3.55-2.29-.54-1.25 2zm5.55 6.34c-2.22 0-4.01-1.79-4.01-4.01 0-2.2 1.79-3.99 4.01-3.99 2.2 0 3.99 1.79 3.99 3.99 0 2.22-1.79 4.01-3.99 4.01zm-.02-1c-1.66 0-2.99-1.34-2.99-3 0-1.65 1.33-3 2.99-3s3.01 1.35 3.01 3c0 1.66-1.35 3-3.01 3zm3.84 1.1-1.28 2.24-2.08-.47 2.53 5.83 1.4-2.2h2.5zm-7.7.07 1.25 2.25 2.13-.51-2.51 5.79-1.4-2.2h-2.5z"/></svg>
