<svg fill="none" height="400" viewBox="0 0 400 400" width="400" xmlns="http://www.w3.org/2000/svg"><g stroke="#000" stroke-linecap="round" stroke-linejoin="round" stroke-opacity=".9" stroke-width="16"><path d="m89.5817 120c-30.8883-28.4976-15.5473-75.243 20.7203-78.867 16.727-1.6701 38.811 12.9384 49.697 12.9384 34.569 0 68.222-26.8153 100.494 0 18.699 15.5338 9.206 45.433-3.487 52.9646"/><path d="m90 117c52.667-5.434 107.696-21.245 160-4.551"/><path d="m93.0559 139c-.1564 6.073-.0279 12.088.9441 18"/><path d="m97 155.173c48.65-22.237 108.18-21.146 157 .827"/><path d="m253 131c.464 7.692 1 15.28 1 23"/><path d="m93.7931 186.199c-8.1187 1.019-6.2916 25.496 10.1479 25.496 0 93.305 159.06 83.305 143.336-9.474 8.723 0 18.4-21.181 6.223-23.221"/><path d="m160 206c.457-2.995.774-6.019 1-9"/><path d="m196 206c0-2.455 0-5.995 0-9"/><path d="m186 245c-6.089 2.785-13.5 4.957-18 .225"/><path d="m38 360c9.0818-42.576 41.2813-72.714 87.151-72.714.729 0 29.352 28.249 55.263 26.3 22.916-1.723 35.683-18.904 54.589-26.3 28.134-11.008 71.997 51.709 71.997 71.17"/><path d="m350 159c-11.393 24.953-63.012 113.605-57.604 147"/><path d="m353.983 156c7.126 36.062 18 126.642-20.983 152"/><path d="m328 304c-9.563-3.886-18.958-8.97-29-11"/><path d="m294.975 308c-9.041 20.2-18.661 35.303 4.025 12.79"/><path d="m311 320c-2.264 11.403-13.256 26.679-21 11.889"/><path d="m211 336.863c-.185 13.108-8 11.485-8-.863"/><path d="m146 351.449c-10.66 2.124-7.129-2.218-2.588-7.449"/></g></svg>