<svg enable-background="new 0 0 24 24" height="24" viewBox="0 0 24 24" width="24" xmlns="http://www.w3.org/2000/svg"><path d="m9.6 16.8h4.8v1.8h-4.8z" fill="none"/><path d="m20 18c1.1 0 1.99-.9 1.99-2l.01-10c0-1.11-.9-2-2-2h-16c-1.11 0-2 .89-2 2v10c0 1.1.89 2 2 2h-4v2h24v-2zm-16-2v-10h16v10 .01zm5.0967-6.0469c0-1.027.836-1.864 1.864-1.864 1.027 0 1.864.837 1.864 1.864s-.837 1.864-1.864 1.864c-1.028 0-1.864-.837-1.864-1.864zm7.032 4.236-2.482-2.482c.331-.505.527-1.107.527-1.754 0-1.772-1.441-3.213-3.213-3.213s-3.214 1.441-3.214 3.213 1.442 3.214 3.214 3.214c.636 0 1.225-.192 1.724-.511l2.489 2.488z"/><path d="m0 0h24v24h-24z" fill="none"/></svg>