<svg viewBox="0 0 90 90" xmlns="http://www.w3.org/2000/svg"><path d="m88.16 81.8a7.36 7.36 0 0 1 -7.4 7.29h-71.52a7.37 7.37 0 0 1 -7.4-7.29v-28.57a7.37 7.37 0 0 1 7.4-7.3h71.52a7.37 7.37 0 0 1 7.4 7.3z" fill="#ffeb97"/><path d="m18.92 61.95c0-3.7 2-5.82 5.54-5.82s5.54 2.12 5.54 5.82v12.05c0 3.7-2 5.82-5.54 5.82s-5.54-2.13-5.54-5.82zm3.65 12.27c0 1.65.73 2.28 1.89 2.28s1.89-.63 1.89-2.28v-12.5c0-1.65-.73-2.28-1.89-2.28s-1.89.63-1.89 2.28z" fill="#576065"/><path d="m44 62.11v3c0 3.7-1.79 5.72-5.44 5.72h-1.73v8.7h-3.65v-23.13h5.37c3.65 0 5.45 2.01 5.45 5.71zm-7.17-2.41v7.84h1.72c1.16 0 1.79-.53 1.79-2.18v-3.48c0-1.65-.63-2.18-1.79-2.18z" fill="#576065"/><path d="m50.16 66.15h5v3.31h-5v6.78h6.3v3.31h-9.95v-23.15h9.95v3.3h-6.3z" fill="#576065"/><path d="m62.78 62.78v16.76h-3.28v-23.14h4.58l3.75 13.85v-13.85h3.25v23.14h-3.75z" fill="#576065"/><circle cx="45" cy="5.87" fill="#94d5d2" r="5.11"/><g fill="#576065"><path d="m6.64 26.12h43.63v3.68h-43.63z" transform="matrix(.58637236 -.81004164 .81004164 .58637236 -10.88 34.61)"/><path d="m59.69 6.12h3.68v43.34h-3.68z" transform="matrix(.80757835 -.5897603 .5897603 .80757835 -4.55 41.63)"/><path d="m80.76 90.94h-71.52a9.2 9.2 0 0 1 -9.24-9.14v-28.57a9.2 9.2 0 0 1 9.24-9.14h71.52a9.2 9.2 0 0 1 9.24 9.14v28.57a9.2 9.2 0 0 1 -9.24 9.14zm-71.52-43.17a5.51 5.51 0 0 0 -5.56 5.46v28.57a5.51 5.51 0 0 0 5.56 5.45h71.52a5.51 5.51 0 0 0 5.56-5.45v-28.57a5.51 5.51 0 0 0 -5.56-5.46z"/><path d="m45 13a6.95 6.95 0 1 1 7-7 7 7 0 0 1 -7 7zm0-10.26a3.27 3.27 0 1 0 3.27 3.26 3.27 3.27 0 0 0 -3.27-3.26z"/><path d="m9.03 51.41h3.2v3.68h-3.2z"/><path d="m9.03 80.19h3.2v3.68h-3.2z"/><path d="m77.77 51.41h3.2v3.68h-3.2z"/><path d="m77.77 80.19h3.2v3.68h-3.2z"/></g></svg>